<svg id="Capa_1" data-name="Capa 1" xmlns="http://www.w3.org/2000/svg" viewBox="0 0 294.28 117.47"><defs><style>.cls-1{fill:#fff;}</style></defs><title>sextopy_logo</title><path class="cls-1" d="M13.4,111.55A32.92,32.92,0,0,1,5.12,99,35.51,35.51,0,0,1,2.33,83.46a14.06,14.06,0,0,1,3-8.1c2.37-2.93,5.61-3.81,9.18-3.66a11.82,11.82,0,0,1,9.15,4.68c.1.13.21.25.37.43l.72-.84A11.89,11.89,0,0,1,40.66,73.7c3,2.1,4.32,5.17,4.65,8.69.49,5.19-1,10-3.28,14.52-3.47,6.82-8.89,11.77-15.37,15.67l-1.28.75a1.65,1.65,0,0,0,.27.24c6.9,3.24,14.14,4.4,21.49,2.34,8.91-2.51,14.15-8.85,16.51-17.64C65.24,92.39,64,87,60.87,81.81A49.51,49.51,0,0,0,49.24,69c-1.85-1.5-3.69-3-5.39-4.7a32.47,32.47,0,0,1-9.39-15.89A18.58,18.58,0,0,1,68.79,35.21c3,5,2.48,10.54-2.52,14.86a2.51,2.51,0,0,1-3.74-.1,2.7,2.7,0,0,1,.15-3.91L62.8,46c3.46-3.24,3.59-7.38.35-10.85-6.09-6.5-17.7-5.29-22.06,2.35-2.53,4.42-2.28,9-.28,13.53a32,32,0,0,0,7.91,10.59c2.67,2.44,5.52,4.7,8.18,7.16A40.23,40.23,0,0,1,67,82.35c4.66,11,2.64,21-4.9,30A26.27,26.27,0,0,1,45,121.94a36.47,36.47,0,0,1-21.29-3.55q-2.1-1-4.13-2.27a1.65,1.65,0,0,0-1.41-.18,47.32,47.32,0,0,1-12.74,1.72,2.57,2.57,0,0,1-2.74-3.23,2.43,2.43,0,0,1,2.56-2.18c2.47-.16,4.93-.36,7.39-.55C12.81,111.68,13,111.62,13.4,111.55Zm26.7-27.5c0-.42,0-.85,0-1.27a6,6,0,0,0-8.41-5.33,7.76,7.76,0,0,0-5,5.93A3.66,3.66,0,0,1,24.86,86a2.35,2.35,0,0,1-3.51-1.52c-.07-.24-.11-.5-.16-.74-.77-3.73-3.2-6.18-6.65-6.72A5.91,5.91,0,0,0,8,80.74a11.8,11.8,0,0,0-.66,6.05,40,40,0,0,0,9,20.37,24.26,24.26,0,0,0,2.4,2.23,1.55,1.55,0,0,0,1.77.24A31.79,31.79,0,0,0,35.22,98.08,26.18,26.18,0,0,0,40.1,84.05Z" transform="translate(-2.26 -25.67)"/><path class="cls-1" d="M94,122.89a22.32,22.32,0,0,1-10-2.16,16.86,16.86,0,0,1-6.84-6,16.1,16.1,0,0,1-2.48-8.95v-10A15.67,15.67,0,0,1,77,87.47a17.35,17.35,0,0,1,6.26-6.07,17.17,17.17,0,0,1,23.08,5.67,15.62,15.62,0,0,1,2.34,8.55q0,3.42-1.17,4.95a4.61,4.61,0,0,1-2.92,1.84,21.18,21.18,0,0,1-3.74.32H80.53v3.33a10.44,10.44,0,0,0,3.87,8.55,15,15,0,0,0,9.81,3.15,13.85,13.85,0,0,0,5.58-.9,15,15,0,0,0,3.11-1.8,3.46,3.46,0,0,1,2.11-.9,2,2,0,0,1,1.31.49,3.57,3.57,0,0,1,.9,1.13,2.63,2.63,0,0,1,.31,1.17q0,1-1.62,2.43a13.58,13.58,0,0,1-4.68,2.47A22.51,22.51,0,0,1,94,122.89ZM80.53,98.41h18a7.38,7.38,0,0,0,3.6-.59,2.76,2.76,0,0,0,.9-2.47,11,11,0,0,0-1.44-5.45,12.14,12.14,0,0,0-4-4.23A10.36,10.36,0,0,0,91.78,84a10.76,10.76,0,0,0-5.62,1.53,12.06,12.06,0,0,0-4.1,4A10.09,10.09,0,0,0,80.53,95Z" transform="translate(-2.26 -25.67)"/><path class="cls-1" d="M117.52,122.89a3,3,0,0,1-1.44-.45,5.11,5.11,0,0,1-1.39-1.13,2,2,0,0,1-.59-1.3,2.22,2.22,0,0,1,.36-1.26l12-18-11.7-17.46-.27-.54a1.45,1.45,0,0,1-.18-.63,2.14,2.14,0,0,1,.59-1.4,5.08,5.08,0,0,1,1.39-1.12,3.31,3.31,0,0,1,1.62-.45,2.79,2.79,0,0,1,1,.18,1.75,1.75,0,0,1,.85.72L130.3,96.52,141,80.05a1.7,1.7,0,0,1,.77-.68,2.25,2.25,0,0,1,.94-.22,3.59,3.59,0,0,1,1.62.4,4.49,4.49,0,0,1,1.4,1.08,2.22,2.22,0,0,1,.58,1.49,2.06,2.06,0,0,1-.45,1.17l-11.79,17.46,12.06,18a1.14,1.14,0,0,1,.27.54,3,3,0,0,1,.09.72,2.1,2.1,0,0,1-.54,1.3,4.52,4.52,0,0,1-1.35,1.13,3.31,3.31,0,0,1-1.62.45,2.27,2.27,0,0,1-.94-.23,1.68,1.68,0,0,1-.77-.67l-11-16.83L119.41,122a2.28,2.28,0,0,1-.85.67A2.5,2.5,0,0,1,117.52,122.89Z" transform="translate(-2.26 -25.67)"/><path class="cls-1" d="M168.37,122.26q-6.93,0-10.62-3.15T154.06,109V61.69A1.86,1.86,0,0,1,155,60a3.61,3.61,0,0,1,1.93-.58A3.71,3.71,0,0,1,159,60a1.88,1.88,0,0,1,.9,1.67v18h11.7a1.71,1.71,0,0,1,1.44.72,3,3,0,0,1,0,3.42,1.71,1.71,0,0,1-1.44.72h-11.7V109q0,4.41,1.89,6.16t6.57,1.76h2.52a2.45,2.45,0,0,1,1.94.76,2.7,2.7,0,0,1,.67,1.85,2.86,2.86,0,0,1-.67,1.89,2.39,2.39,0,0,1-1.94.81Z" transform="translate(-2.26 -25.67)"/><path class="cls-1" d="M195.46,122.89a16,16,0,0,1-8.5-2.39,18.24,18.24,0,0,1-6.26-6.3,16.1,16.1,0,0,1-2.34-8.41V96.07a16.13,16.13,0,0,1,2.3-8.37,17.59,17.59,0,0,1,6.21-6.21,16.95,16.95,0,0,1,17.1,0,17.7,17.7,0,0,1,6.25,6.12,16,16,0,0,1,2.34,8.51v9.72a16.2,16.2,0,0,1-2.34,8.37A18.07,18.07,0,0,1,204,120.5,16.07,16.07,0,0,1,195.46,122.89Zm0-5.4a10.06,10.06,0,0,0,5.67-1.67,12.56,12.56,0,0,0,4.05-4.36,11.34,11.34,0,0,0,1.53-5.67V96.07a11.1,11.1,0,0,0-1.48-5.58,12.29,12.29,0,0,0-4-4.28,10.29,10.29,0,0,0-5.72-1.66,10.05,10.05,0,0,0-5.67,1.66,12.86,12.86,0,0,0-4,4.28,10.85,10.85,0,0,0-1.53,5.58v9.72a11.61,11.61,0,0,0,1.49,5.67,11.88,11.88,0,0,0,4.09,4.36A10.35,10.35,0,0,0,195.46,117.49Z" transform="translate(-2.26 -25.67)"/><path class="cls-1" d="M225.16,143.14a3,3,0,0,1-2-.72,2.1,2.1,0,0,1-.86-1.62V81.94a1.91,1.91,0,0,1,.86-1.67,3.48,3.48,0,0,1,2-.58,3.29,3.29,0,0,1,2,.58,1.94,1.94,0,0,1,.81,1.67v4a15.19,15.19,0,0,1,4.59-4.73A12.81,12.81,0,0,1,240,79.15a15,15,0,0,1,8.15,2.29A17.34,17.34,0,0,1,254,87.56a16.74,16.74,0,0,1,2.2,8.51v9.72a17,17,0,0,1-2.2,8.37,17.93,17.93,0,0,1-5.81,6.34,14,14,0,0,1-7.92,2.39,13.41,13.41,0,0,1-7.38-2.07,13.63,13.63,0,0,1-4.77-4.86V140.8a2.09,2.09,0,0,1-.85,1.62A3.18,3.18,0,0,1,225.16,143.14Zm14-25.65a9.77,9.77,0,0,0,5.49-1.67,13,13,0,0,0,4.1-4.36,11.08,11.08,0,0,0,1.57-5.67V96.07a10.61,10.61,0,0,0-1.57-5.58,13.31,13.31,0,0,0-4.1-4.28A10.05,10.05,0,0,0,239,84.55a10.37,10.37,0,0,0-5.17,1.39,11.63,11.63,0,0,0-4.1,3.92,11.25,11.25,0,0,0-1.62,6.21v12.51a6.73,6.73,0,0,0,1.44,3.46,14.1,14.1,0,0,0,4,3.78A10.06,10.06,0,0,0,239.2,117.49Z" transform="translate(-2.26 -25.67)"/><path class="cls-1" d="M264.13,143.14a3.29,3.29,0,0,1-2-.59,2.32,2.32,0,0,1-.81-2,3.83,3.83,0,0,1,.45-1.89,1.53,1.53,0,0,1,1.44-.81,7.24,7.24,0,0,0,4.14-1.35,14.58,14.58,0,0,0,3.69-3.83,32.78,32.78,0,0,0,3.06-5.58,37.9,37.9,0,0,0,2.16-6.61L261.52,82.84a3,3,0,0,1-.18-.9,1.92,1.92,0,0,1,.59-1.4,5.1,5.1,0,0,1,1.44-1,3.68,3.68,0,0,1,1.57-.4,2.72,2.72,0,0,1,1.31.31,1.51,1.51,0,0,1,.76,1l12.33,33.12L291,80.41a2,2,0,0,1,.81-1,2.28,2.28,0,0,1,1.17-.31,4.48,4.48,0,0,1,3,1.35,2.16,2.16,0,0,1,.58,1.53,1.79,1.79,0,0,1-.18.81l-14,37.71q-1.35,3.6-2.88,7.56a47.42,47.42,0,0,1-3.55,7.33,19.12,19.12,0,0,1-4.91,5.54A11.22,11.22,0,0,1,264.13,143.14Z" transform="translate(-2.26 -25.67)"/></svg>