<svg xmlns="http://www.w3.org/2000/svg" viewBox="0 0 28 33.37"><defs><style>.cls-1{fill:#fff;}</style></defs><title>Recurso 2</title><g id="Capa_2" data-name="Capa 2"><g id="Capa_1-2" data-name="Capa 1"><path class="cls-1" d="M5.38,9.4A8.65,8.65,0,0,1,8.26,2.19,8.37,8.37,0,0,1,13.71,0a8.36,8.36,0,0,1,3.56.64,8.49,8.49,0,0,1,3,2.05,8.58,8.58,0,0,1,1.88,3.1,9.13,9.13,0,0,1,.47,3.6h4.74A.58.58,0,0,1,28,10V28.69a4.69,4.69,0,0,1-4.06,4.65,5.12,5.12,0,0,1-.56,0H4.61A4.68,4.68,0,0,1,.06,29.44,5.09,5.09,0,0,1,0,28.67V10.07a.83.83,0,0,1,.1-.41A.55.55,0,0,1,.62,9.4H5.38Zm1.14,1.16v.15c0,.44,0,.88,0,1.32a.19.19,0,0,0,.14.21,1.9,1.9,0,0,1,1.11,2.37A1.92,1.92,0,0,1,4,14.17a1.89,1.89,0,0,1,1.2-1.93A.19.19,0,0,0,5.37,12c0-.44,0-.88,0-1.32v-.15H1.15v18a4.32,4.32,0,0,0,0,.5,3.54,3.54,0,0,0,3.39,3.13H23.23a3.53,3.53,0,0,0,3.62-3.62v-18H22.63c0,.47,0,.92,0,1.37a.3.3,0,0,0,.21.34,1.9,1.9,0,0,1,1.05,2.3,1.92,1.92,0,0,1-3.75-.41,1.9,1.9,0,0,1,1.22-1.93.16.16,0,0,0,.12-.18c0-.43,0-.86,0-1.29v-.2Zm0-1.17H21.47A7.36,7.36,0,0,0,18,2.31a7,7,0,0,0-7.89,0A7.34,7.34,0,0,0,6.53,9.39ZM6,13.24a.77.77,0,0,0-.78.74A.77.77,0,1,0,6,13.24Zm16.1,0a.77.77,0,1,0,.76.76A.76.76,0,0,0,22.06,13.24Z"/></g></g></svg>